<?xml version="1.0" encoding="utf-8"?>
<!-- Generator: Adobe Illustrator 26.5.0, SVG Export Plug-In . SVG Version: 6.00 Build 0)  -->
<svg version="1.1" id="Vrstva_1" xmlns="http://www.w3.org/2000/svg" xmlns:xlink="http://www.w3.org/1999/xlink" x="0px" y="0px"
	 width="205px" height="50px" viewBox="0 0 205 50" style="enable-background:new 0 0 205 50;" xml:space="preserve">
<style type="text/css">
	.st0{fill:#A20F3B;}
</style>
<g>
	<rect x="46.2" y="2.9" class="st0" width="14.9" height="44.2"/>
	<polygon class="st0" points="83.2,2.9 68.3,2.9 68.3,47.1 103.1,47.1 103.1,35.5 83.2,35.5 	"/>
	<polygon class="st0" points="188,2.9 188,23 171.2,2.9 158.9,2.9 158.9,47.1 173.5,47.1 173.5,27 190.3,47.1 202.5,47.1 202.5,2.9 
			"/>
	<g>
		<path class="st0" d="M135.7,18l8.9,1.4l2.4-9c-4.2-5.2-10.7-8.5-17.9-8.5C116.3,1.9,106,12.2,106,25c0,1.6,0.2,3.2,0.5,4.7
			C113.2,13.4,130.6,11.6,135.7,18"/>
		<path class="st0" d="M122.5,32l-8.9-1.4l-2.4,9c4.2,5.2,10.7,8.5,17.9,8.5c12.8,0,23.1-10.3,23.1-23.1c0-1.6-0.2-3.2-0.5-4.7
			C144.9,36.6,127.5,38.4,122.5,32"/>
		<path class="st0" d="M17.2,16c0-1.5,1.4-2.8,5.7-2.8c3.8,0,7.8,1,12,3.1c1.5,0.7,2.5,1.3,3.3,1.7V5c-4.4-2.1-9.9-3.1-15.2-3.1
			C9.4,1.9,2.5,8.6,2.5,16.8c0,16.5,24.4,12,24.4,17.5c0,1.5-1.5,2.4-5.7,2.4c-4.2,0-9-1.2-12.9-3.1c-2-1-3.5-1.9-5.1-3v13.7
			c4.5,2.3,11.2,3.8,17.8,3.8c13.7,0,20.6-6.8,20.6-14.9C41.6,16.9,17.2,21.3,17.2,16"/>
	</g>
</g>
</svg>
